<mxfile host="65bd71144e">
    <diagram id="VRdNt2F2pNWHwAMP95QL" name="ページ1">
        <mxGraphModel dx="5501" dy="3779" grid="1" gridSize="10" guides="1" tooltips="1" connect="1" arrows="1" fold="1" page="1" pageScale="1" pageWidth="827" pageHeight="1169" math="0" shadow="0">
            <root>
                <mxCell id="0"/>
                <mxCell id="1" parent="0"/>
                <mxCell id="130" value="" style="rounded=1;whiteSpace=wrap;html=1;fontSize=36;strokeColor=#99CCFF;" vertex="1" parent="1">
                    <mxGeometry x="-130" y="-230" width="920" height="1380" as="geometry"/>
                </mxCell>
                <mxCell id="132" value="" style="rounded=1;whiteSpace=wrap;html=1;fontSize=48;strokeColor=#99CCFF;" vertex="1" parent="1">
                    <mxGeometry x="-80" y="790" width="830" height="300" as="geometry"/>
                </mxCell>
                <mxCell id="129" value="" style="rounded=1;whiteSpace=wrap;html=1;fontSize=36;strokeColor=#99CCFF;" vertex="1" parent="1">
                    <mxGeometry x="-1620" y="-210" width="1430" height="1350" as="geometry"/>
                </mxCell>
                <mxCell id="2" value="&lt;span style=&quot;font-size: 18px&quot;&gt;info.html&lt;/span&gt;" style="text;html=1;resizable=0;autosize=1;align=center;verticalAlign=middle;points=[];fillColor=none;strokeColor=none;rounded=0;" parent="1" vertex="1">
                    <mxGeometry x="320" width="80" height="20" as="geometry"/>
                </mxCell>
                <mxCell id="43" style="edgeStyle=orthogonalEdgeStyle;curved=1;html=1;exitX=1;exitY=0.5;exitDx=0;exitDy=0;entryX=0;entryY=0.5;entryDx=0;entryDy=0;fontSize=18;" parent="1" source="3" target="7" edge="1">
                    <mxGeometry relative="1" as="geometry"/>
                </mxCell>
                <mxCell id="44" style="edgeStyle=orthogonalEdgeStyle;curved=1;html=1;entryX=0;entryY=0.5;entryDx=0;entryDy=0;fontSize=18;" parent="1" source="3" target="23" edge="1">
                    <mxGeometry relative="1" as="geometry"/>
                </mxCell>
                <mxCell id="127" style="edgeStyle=entityRelationEdgeStyle;html=1;exitX=0.5;exitY=0;exitDx=0;exitDy=0;entryX=0.5;entryY=0;entryDx=0;entryDy=0;entryPerimeter=0;fontSize=36;elbow=vertical;strokeColor=#FF0000;" edge="1" parent="1" source="3" target="50">
                    <mxGeometry relative="1" as="geometry"/>
                </mxCell>
                <mxCell id="3" value="" style="whiteSpace=wrap;html=1;aspect=fixed;fontSize=18;" parent="1" vertex="1">
                    <mxGeometry x="-40" y="40" width="330" height="330" as="geometry"/>
                </mxCell>
                <mxCell id="4" value="ログイン" style="rounded=0;whiteSpace=wrap;html=1;fontSize=18;" parent="1" vertex="1">
                    <mxGeometry x="-10" y="60" width="90" height="40" as="geometry"/>
                </mxCell>
                <mxCell id="6" value="inputBox" style="rounded=0;whiteSpace=wrap;html=1;fontSize=18;" parent="1" vertex="1">
                    <mxGeometry x="150" y="130" width="90" height="40" as="geometry"/>
                </mxCell>
                <mxCell id="7" value="" style="whiteSpace=wrap;html=1;aspect=fixed;fontSize=18;" parent="1" vertex="1">
                    <mxGeometry x="320" y="40" width="330" height="330" as="geometry"/>
                </mxCell>
                <mxCell id="8" value="inputBox" style="rounded=0;whiteSpace=wrap;html=1;fontSize=18;" parent="1" vertex="1">
                    <mxGeometry x="150" y="200" width="90" height="40" as="geometry"/>
                </mxCell>
                <mxCell id="9" value="inputBox" style="rounded=0;whiteSpace=wrap;html=1;fontSize=18;" parent="1" vertex="1">
                    <mxGeometry x="150" y="270" width="90" height="40" as="geometry"/>
                </mxCell>
                <mxCell id="11" value="" style="edgeStyle=none;html=1;fontSize=18;" parent="1" source="10" target="6" edge="1">
                    <mxGeometry relative="1" as="geometry"/>
                </mxCell>
                <mxCell id="10" value="&lt;span style=&quot;font-size: 18px&quot;&gt;名前&lt;/span&gt;" style="text;html=1;resizable=0;autosize=1;align=center;verticalAlign=middle;points=[];fillColor=none;strokeColor=none;rounded=0;" parent="1" vertex="1">
                    <mxGeometry x="10" y="140" width="50" height="20" as="geometry"/>
                </mxCell>
                <mxCell id="13" style="edgeStyle=none;html=1;entryX=0;entryY=0.5;entryDx=0;entryDy=0;fontSize=18;" parent="1" source="12" target="8" edge="1">
                    <mxGeometry relative="1" as="geometry"/>
                </mxCell>
                <mxCell id="12" value="&lt;span style=&quot;font-size: 18px&quot;&gt;生年月日&lt;/span&gt;" style="text;html=1;resizable=0;autosize=1;align=center;verticalAlign=middle;points=[];fillColor=none;strokeColor=none;rounded=0;" parent="1" vertex="1">
                    <mxGeometry x="-10" y="210" width="90" height="20" as="geometry"/>
                </mxCell>
                <mxCell id="15" style="edgeStyle=none;html=1;fontSize=18;" parent="1" source="14" target="9" edge="1">
                    <mxGeometry relative="1" as="geometry"/>
                </mxCell>
                <mxCell id="14" value="&lt;span style=&quot;font-size: 18px&quot;&gt;メールアドレス&lt;/span&gt;" style="text;html=1;resizable=0;autosize=1;align=center;verticalAlign=middle;points=[];fillColor=none;strokeColor=none;rounded=0;" parent="1" vertex="1">
                    <mxGeometry x="-35" y="280" width="140" height="20" as="geometry"/>
                </mxCell>
                <mxCell id="16" value="名前" style="rounded=0;whiteSpace=wrap;html=1;fontSize=18;" parent="1" vertex="1">
                    <mxGeometry x="400" y="130" width="176" height="40" as="geometry"/>
                </mxCell>
                <mxCell id="17" value="生年月日" style="rounded=0;whiteSpace=wrap;html=1;fontSize=18;" parent="1" vertex="1">
                    <mxGeometry x="400" y="200" width="176" height="40" as="geometry"/>
                </mxCell>
                <mxCell id="18" value="メールアドレス" style="rounded=0;whiteSpace=wrap;html=1;fontSize=18;" parent="1" vertex="1">
                    <mxGeometry x="400" y="270" width="176" height="40" as="geometry"/>
                </mxCell>
                <mxCell id="19" value="&lt;font style=&quot;font-size: 18px&quot;&gt;あなたのログイン情報です。&lt;/font&gt;" style="text;html=1;resizable=0;autosize=1;align=center;verticalAlign=middle;points=[];fillColor=none;strokeColor=none;rounded=0;" parent="1" vertex="1">
                    <mxGeometry x="345" y="340" width="250" height="20" as="geometry"/>
                </mxCell>
                <mxCell id="20" value="新規登録" style="rounded=0;whiteSpace=wrap;html=1;fontSize=18;" parent="1" vertex="1">
                    <mxGeometry x="170" y="60" width="90" height="40" as="geometry"/>
                </mxCell>
                <mxCell id="23" value="" style="whiteSpace=wrap;html=1;aspect=fixed;fontSize=18;" parent="1" vertex="1">
                    <mxGeometry x="320" y="420" width="330" height="330" as="geometry"/>
                </mxCell>
                <mxCell id="25" value="&lt;span style=&quot;font-size: 18px&quot;&gt;あなたはadminです。&lt;/span&gt;" style="text;html=1;resizable=0;autosize=1;align=center;verticalAlign=middle;points=[];fillColor=none;strokeColor=none;rounded=0;" parent="1" vertex="1">
                    <mxGeometry x="340" y="710" width="190" height="20" as="geometry"/>
                </mxCell>
                <mxCell id="26" value="一覧" style="shape=table;startSize=30;container=1;collapsible=0;childLayout=tableLayout;fontStyle=1;align=center;pointerEvents=1;fontSize=18;" parent="1" vertex="1">
                    <mxGeometry x="340" y="490" width="290" height="200" as="geometry"/>
                </mxCell>
                <mxCell id="27" value="" style="shape=partialRectangle;html=1;whiteSpace=wrap;collapsible=0;dropTarget=0;pointerEvents=0;fillColor=none;top=0;left=0;bottom=0;right=0;points=[[0,0.5],[1,0.5]];portConstraint=eastwest;fontSize=18;" parent="26" vertex="1">
                    <mxGeometry y="30" width="290" height="56" as="geometry"/>
                </mxCell>
                <mxCell id="28" value="名前" style="shape=partialRectangle;html=1;whiteSpace=wrap;connectable=0;fillColor=none;top=0;left=0;bottom=0;right=0;overflow=hidden;pointerEvents=1;fontSize=18;" parent="27" vertex="1">
                    <mxGeometry width="97" height="56" as="geometry">
                        <mxRectangle width="97" height="56" as="alternateBounds"/>
                    </mxGeometry>
                </mxCell>
                <mxCell id="29" value="生年月日" style="shape=partialRectangle;html=1;whiteSpace=wrap;connectable=0;fillColor=none;top=0;left=0;bottom=0;right=0;overflow=hidden;pointerEvents=1;fontSize=18;" parent="27" vertex="1">
                    <mxGeometry x="97" width="96" height="56" as="geometry">
                        <mxRectangle width="96" height="56" as="alternateBounds"/>
                    </mxGeometry>
                </mxCell>
                <mxCell id="30" value="メールアドレス" style="shape=partialRectangle;html=1;whiteSpace=wrap;connectable=0;fillColor=none;top=0;left=0;bottom=0;right=0;overflow=hidden;pointerEvents=1;fontSize=18;" parent="27" vertex="1">
                    <mxGeometry x="193" width="97" height="56" as="geometry">
                        <mxRectangle width="97" height="56" as="alternateBounds"/>
                    </mxGeometry>
                </mxCell>
                <mxCell id="31" value="" style="shape=partialRectangle;html=1;whiteSpace=wrap;collapsible=0;dropTarget=0;pointerEvents=0;fillColor=none;top=0;left=0;bottom=0;right=0;points=[[0,0.5],[1,0.5]];portConstraint=eastwest;fontSize=18;" parent="26" vertex="1">
                    <mxGeometry y="86" width="290" height="58" as="geometry"/>
                </mxCell>
                <mxCell id="32" value="名前" style="shape=partialRectangle;html=1;whiteSpace=wrap;connectable=0;fillColor=none;top=0;left=0;bottom=0;right=0;overflow=hidden;pointerEvents=1;fontSize=18;" parent="31" vertex="1">
                    <mxGeometry width="97" height="58" as="geometry">
                        <mxRectangle width="97" height="58" as="alternateBounds"/>
                    </mxGeometry>
                </mxCell>
                <mxCell id="33" value="&lt;span&gt;生年月日&lt;/span&gt;" style="shape=partialRectangle;html=1;whiteSpace=wrap;connectable=0;fillColor=none;top=0;left=0;bottom=0;right=0;overflow=hidden;pointerEvents=1;fontSize=18;" parent="31" vertex="1">
                    <mxGeometry x="97" width="96" height="58" as="geometry">
                        <mxRectangle width="96" height="58" as="alternateBounds"/>
                    </mxGeometry>
                </mxCell>
                <mxCell id="34" value="&lt;span&gt;メールアドレス&lt;/span&gt;" style="shape=partialRectangle;html=1;whiteSpace=wrap;connectable=0;fillColor=none;top=0;left=0;bottom=0;right=0;overflow=hidden;pointerEvents=1;fontSize=18;" parent="31" vertex="1">
                    <mxGeometry x="193" width="97" height="58" as="geometry">
                        <mxRectangle width="97" height="58" as="alternateBounds"/>
                    </mxGeometry>
                </mxCell>
                <mxCell id="35" value="" style="shape=partialRectangle;html=1;whiteSpace=wrap;collapsible=0;dropTarget=0;pointerEvents=0;fillColor=none;top=0;left=0;bottom=0;right=0;points=[[0,0.5],[1,0.5]];portConstraint=eastwest;fontSize=18;" parent="26" vertex="1">
                    <mxGeometry y="144" width="290" height="56" as="geometry"/>
                </mxCell>
                <mxCell id="36" value="名前" style="shape=partialRectangle;html=1;whiteSpace=wrap;connectable=0;fillColor=none;top=0;left=0;bottom=0;right=0;overflow=hidden;pointerEvents=1;fontSize=18;" parent="35" vertex="1">
                    <mxGeometry width="97" height="56" as="geometry">
                        <mxRectangle width="97" height="56" as="alternateBounds"/>
                    </mxGeometry>
                </mxCell>
                <mxCell id="37" value="&lt;span&gt;生年月日&lt;/span&gt;" style="shape=partialRectangle;html=1;whiteSpace=wrap;connectable=0;fillColor=none;top=0;left=0;bottom=0;right=0;overflow=hidden;pointerEvents=1;fontSize=18;" parent="35" vertex="1">
                    <mxGeometry x="97" width="96" height="56" as="geometry">
                        <mxRectangle width="96" height="56" as="alternateBounds"/>
                    </mxGeometry>
                </mxCell>
                <mxCell id="38" value="&lt;span&gt;メールアドレス&lt;/span&gt;" style="shape=partialRectangle;html=1;whiteSpace=wrap;connectable=0;fillColor=none;top=0;left=0;bottom=0;right=0;overflow=hidden;pointerEvents=1;fontSize=18;" parent="35" vertex="1">
                    <mxGeometry x="193" width="97" height="56" as="geometry">
                        <mxRectangle width="97" height="56" as="alternateBounds"/>
                    </mxGeometry>
                </mxCell>
                <mxCell id="39" value="ログアウト" style="rounded=0;whiteSpace=wrap;html=1;fontSize=18;" parent="1" vertex="1">
                    <mxGeometry x="515" y="60" width="105" height="40" as="geometry"/>
                </mxCell>
                <mxCell id="40" value="前の画面" style="rounded=0;whiteSpace=wrap;html=1;fontSize=18;" parent="1" vertex="1">
                    <mxGeometry x="350" y="60" width="105" height="40" as="geometry"/>
                </mxCell>
                <mxCell id="41" value="ログアウト" style="rounded=0;whiteSpace=wrap;html=1;fontSize=18;" parent="1" vertex="1">
                    <mxGeometry x="525" y="440" width="105" height="40" as="geometry"/>
                </mxCell>
                <mxCell id="42" value="前の画面" style="rounded=0;whiteSpace=wrap;html=1;fontSize=18;" parent="1" vertex="1">
                    <mxGeometry x="345" y="440" width="105" height="40" as="geometry"/>
                </mxCell>
                <mxCell id="46" style="edgeStyle=orthogonalEdgeStyle;curved=1;html=1;exitX=0.5;exitY=1;exitDx=0;exitDy=0;fontSize=18;" parent="1" source="45" edge="1">
                    <mxGeometry relative="1" as="geometry">
                        <mxPoint x="583" y="880" as="targetPoint"/>
                    </mxGeometry>
                </mxCell>
                <mxCell id="45" value="一覧出力" style="rounded=0;whiteSpace=wrap;html=1;fontSize=18;" parent="1" vertex="1">
                    <mxGeometry x="530" y="700" width="105" height="40" as="geometry"/>
                </mxCell>
                <mxCell id="47" value="" style="sketch=0;aspect=fixed;pointerEvents=1;shadow=0;dashed=0;html=1;strokeColor=none;labelPosition=center;verticalLabelPosition=bottom;verticalAlign=top;align=center;fillColor=#00188D;shape=mxgraph.mscae.enterprise.xml_web_service;fontSize=18;" parent="1" vertex="1">
                    <mxGeometry x="498.5" y="880" width="168" height="168" as="geometry"/>
                </mxCell>
                <mxCell id="48" value="&lt;font style=&quot;font-size: 18px&quot;&gt;kadai.html&lt;/font&gt;" style="text;html=1;resizable=0;autosize=1;align=center;verticalAlign=middle;points=[];fillColor=none;strokeColor=none;rounded=0;" parent="1" vertex="1">
                    <mxGeometry x="-40" width="100" height="20" as="geometry"/>
                </mxCell>
                <mxCell id="49" value="&lt;span style=&quot;font-size: 18px&quot;&gt;admin_view.html&lt;/span&gt;" style="text;html=1;resizable=0;autosize=1;align=center;verticalAlign=middle;points=[];fillColor=none;strokeColor=none;rounded=0;" parent="1" vertex="1">
                    <mxGeometry x="320" y="390" width="150" height="20" as="geometry"/>
                </mxCell>
                <mxCell id="121" style="edgeStyle=entityRelationEdgeStyle;html=1;entryX=0;entryY=0;entryDx=0;entryDy=0;fontSize=36;elbow=vertical;exitX=0.5;exitY=1;exitDx=0;exitDy=0;exitPerimeter=0;" edge="1" parent="1" source="50" target="92">
                    <mxGeometry relative="1" as="geometry"/>
                </mxCell>
                <mxCell id="122" style="edgeStyle=entityRelationEdgeStyle;html=1;exitX=0.5;exitY=1;exitDx=0;exitDy=0;exitPerimeter=0;entryX=0;entryY=0.5;entryDx=0;entryDy=0;fontSize=36;elbow=vertical;" edge="1" parent="1" source="50" target="80">
                    <mxGeometry relative="1" as="geometry"/>
                </mxCell>
                <mxCell id="123" style="edgeStyle=entityRelationEdgeStyle;html=1;exitX=0.5;exitY=1;exitDx=0;exitDy=0;exitPerimeter=0;entryX=0;entryY=0;entryDx=0;entryDy=0;fontSize=36;elbow=vertical;" edge="1" parent="1" source="50" target="105">
                    <mxGeometry relative="1" as="geometry"/>
                </mxCell>
                <mxCell id="50" value="&lt;font style=&quot;font-size: 36px&quot;&gt;Kadai_DB&lt;/font&gt;" style="strokeWidth=2;html=1;shape=mxgraph.flowchart.database;whiteSpace=wrap;" vertex="1" parent="1">
                    <mxGeometry x="-1420" width="420" height="250" as="geometry"/>
                </mxCell>
                <mxCell id="79" value="auth_info_table" style="shape=table;startSize=30;container=1;collapsible=0;childLayout=tableLayout;fontStyle=1;align=center;pointerEvents=1;fontSize=36;strokeColor=#99CCFF;" vertex="1" parent="1">
                    <mxGeometry x="-1480" y="760" width="570" height="270" as="geometry"/>
                </mxCell>
                <mxCell id="80" value="" style="shape=partialRectangle;html=1;whiteSpace=wrap;collapsible=0;dropTarget=0;pointerEvents=0;fillColor=none;top=0;left=0;bottom=0;right=0;points=[[0,0.5],[1,0.5]];portConstraint=eastwest;fontSize=36;" vertex="1" parent="79">
                    <mxGeometry y="30" width="570" height="80" as="geometry"/>
                </mxCell>
                <mxCell id="81" value="user_id" style="shape=partialRectangle;html=1;whiteSpace=wrap;connectable=0;fillColor=none;top=0;left=0;bottom=0;right=0;overflow=hidden;pointerEvents=1;fontSize=36;" vertex="1" parent="80">
                    <mxGeometry width="190" height="80" as="geometry">
                        <mxRectangle width="190" height="80" as="alternateBounds"/>
                    </mxGeometry>
                </mxCell>
                <mxCell id="82" value="int" style="shape=partialRectangle;html=1;whiteSpace=wrap;connectable=0;fillColor=none;top=0;left=0;bottom=0;right=0;overflow=hidden;pointerEvents=1;fontSize=36;" vertex="1" parent="80">
                    <mxGeometry x="190" width="190" height="80" as="geometry">
                        <mxRectangle width="190" height="80" as="alternateBounds"/>
                    </mxGeometry>
                </mxCell>
                <mxCell id="83" value="" style="shape=partialRectangle;html=1;whiteSpace=wrap;connectable=0;fillColor=none;top=0;left=0;bottom=0;right=0;overflow=hidden;pointerEvents=1;fontSize=36;" vertex="1" parent="80">
                    <mxGeometry x="380" width="190" height="80" as="geometry">
                        <mxRectangle width="190" height="80" as="alternateBounds"/>
                    </mxGeometry>
                </mxCell>
                <mxCell id="84" value="" style="shape=partialRectangle;html=1;whiteSpace=wrap;collapsible=0;dropTarget=0;pointerEvents=0;fillColor=none;top=0;left=0;bottom=0;right=0;points=[[0,0.5],[1,0.5]];portConstraint=eastwest;fontSize=36;" vertex="1" parent="79">
                    <mxGeometry y="110" width="570" height="80" as="geometry"/>
                </mxCell>
                <mxCell id="85" value="pass_hash" style="shape=partialRectangle;html=1;whiteSpace=wrap;connectable=0;fillColor=none;top=0;left=0;bottom=0;right=0;overflow=hidden;pointerEvents=1;fontSize=36;" vertex="1" parent="84">
                    <mxGeometry width="190" height="80" as="geometry">
                        <mxRectangle width="190" height="80" as="alternateBounds"/>
                    </mxGeometry>
                </mxCell>
                <mxCell id="86" value="varchar(45)" style="shape=partialRectangle;html=1;whiteSpace=wrap;connectable=0;fillColor=none;top=0;left=0;bottom=0;right=0;overflow=hidden;pointerEvents=1;fontSize=36;" vertex="1" parent="84">
                    <mxGeometry x="190" width="190" height="80" as="geometry">
                        <mxRectangle width="190" height="80" as="alternateBounds"/>
                    </mxGeometry>
                </mxCell>
                <mxCell id="87" value="" style="shape=partialRectangle;html=1;whiteSpace=wrap;connectable=0;fillColor=none;top=0;left=0;bottom=0;right=0;overflow=hidden;pointerEvents=1;fontSize=36;" vertex="1" parent="84">
                    <mxGeometry x="380" width="190" height="80" as="geometry">
                        <mxRectangle width="190" height="80" as="alternateBounds"/>
                    </mxGeometry>
                </mxCell>
                <mxCell id="88" value="" style="shape=partialRectangle;html=1;whiteSpace=wrap;collapsible=0;dropTarget=0;pointerEvents=0;fillColor=none;top=0;left=0;bottom=0;right=0;points=[[0,0.5],[1,0.5]];portConstraint=eastwest;fontSize=36;" vertex="1" parent="79">
                    <mxGeometry y="190" width="570" height="80" as="geometry"/>
                </mxCell>
                <mxCell id="89" value="" style="shape=partialRectangle;html=1;whiteSpace=wrap;connectable=0;fillColor=none;top=0;left=0;bottom=0;right=0;overflow=hidden;pointerEvents=1;fontSize=36;" vertex="1" parent="88">
                    <mxGeometry width="190" height="80" as="geometry">
                        <mxRectangle width="190" height="80" as="alternateBounds"/>
                    </mxGeometry>
                </mxCell>
                <mxCell id="90" value="" style="shape=partialRectangle;html=1;whiteSpace=wrap;connectable=0;fillColor=none;top=0;left=0;bottom=0;right=0;overflow=hidden;pointerEvents=1;fontSize=36;" vertex="1" parent="88">
                    <mxGeometry x="190" width="190" height="80" as="geometry">
                        <mxRectangle width="190" height="80" as="alternateBounds"/>
                    </mxGeometry>
                </mxCell>
                <mxCell id="91" value="" style="shape=partialRectangle;html=1;whiteSpace=wrap;connectable=0;fillColor=none;top=0;left=0;bottom=0;right=0;overflow=hidden;pointerEvents=1;fontSize=36;" vertex="1" parent="88">
                    <mxGeometry x="380" width="190" height="80" as="geometry">
                        <mxRectangle width="190" height="80" as="alternateBounds"/>
                    </mxGeometry>
                </mxCell>
                <mxCell id="118" style="edgeStyle=entityRelationEdgeStyle;html=1;entryX=1;entryY=0.5;entryDx=0;entryDy=0;fontSize=36;elbow=vertical;" edge="1" parent="1" source="92" target="84">
                    <mxGeometry relative="1" as="geometry"/>
                </mxCell>
                <mxCell id="92" value="user_table" style="shape=table;startSize=30;container=1;collapsible=0;childLayout=tableLayout;fontStyle=1;align=center;pointerEvents=1;fontSize=36;strokeColor=#FFB366;" vertex="1" parent="1">
                    <mxGeometry x="-1480" y="420" width="570" height="270" as="geometry"/>
                </mxCell>
                <mxCell id="93" value="" style="shape=partialRectangle;html=1;whiteSpace=wrap;collapsible=0;dropTarget=0;pointerEvents=0;fillColor=none;top=0;left=0;bottom=0;right=0;points=[[0,0.5],[1,0.5]];portConstraint=eastwest;fontSize=36;" vertex="1" parent="92">
                    <mxGeometry y="30" width="570" height="80" as="geometry"/>
                </mxCell>
                <mxCell id="94" value="id" style="shape=partialRectangle;html=1;whiteSpace=wrap;connectable=0;fillColor=none;top=0;left=0;bottom=0;right=0;overflow=hidden;pointerEvents=1;fontSize=36;" vertex="1" parent="93">
                    <mxGeometry width="190" height="80" as="geometry">
                        <mxRectangle width="190" height="80" as="alternateBounds"/>
                    </mxGeometry>
                </mxCell>
                <mxCell id="95" value="int" style="shape=partialRectangle;html=1;whiteSpace=wrap;connectable=0;fillColor=none;top=0;left=0;bottom=0;right=0;overflow=hidden;pointerEvents=1;fontSize=36;" vertex="1" parent="93">
                    <mxGeometry x="190" width="190" height="80" as="geometry">
                        <mxRectangle width="190" height="80" as="alternateBounds"/>
                    </mxGeometry>
                </mxCell>
                <mxCell id="96" value="" style="shape=partialRectangle;html=1;whiteSpace=wrap;connectable=0;fillColor=none;top=0;left=0;bottom=0;right=0;overflow=hidden;pointerEvents=1;fontSize=36;" vertex="1" parent="93">
                    <mxGeometry x="380" width="190" height="80" as="geometry">
                        <mxRectangle width="190" height="80" as="alternateBounds"/>
                    </mxGeometry>
                </mxCell>
                <mxCell id="97" value="" style="shape=partialRectangle;html=1;whiteSpace=wrap;collapsible=0;dropTarget=0;pointerEvents=0;fillColor=none;top=0;left=0;bottom=0;right=0;points=[[0,0.5],[1,0.5]];portConstraint=eastwest;fontSize=36;" vertex="1" parent="92">
                    <mxGeometry y="110" width="570" height="80" as="geometry"/>
                </mxCell>
                <mxCell id="98" value="user_name" style="shape=partialRectangle;html=1;whiteSpace=wrap;connectable=0;fillColor=none;top=0;left=0;bottom=0;right=0;overflow=hidden;pointerEvents=1;fontSize=36;" vertex="1" parent="97">
                    <mxGeometry width="190" height="80" as="geometry">
                        <mxRectangle width="190" height="80" as="alternateBounds"/>
                    </mxGeometry>
                </mxCell>
                <mxCell id="99" value="varchar(45)" style="shape=partialRectangle;html=1;whiteSpace=wrap;connectable=0;fillColor=none;top=0;left=0;bottom=0;right=0;overflow=hidden;pointerEvents=1;fontSize=36;" vertex="1" parent="97">
                    <mxGeometry x="190" width="190" height="80" as="geometry">
                        <mxRectangle width="190" height="80" as="alternateBounds"/>
                    </mxGeometry>
                </mxCell>
                <mxCell id="100" value="" style="shape=partialRectangle;html=1;whiteSpace=wrap;connectable=0;fillColor=none;top=0;left=0;bottom=0;right=0;overflow=hidden;pointerEvents=1;fontSize=36;" vertex="1" parent="97">
                    <mxGeometry x="380" width="190" height="80" as="geometry">
                        <mxRectangle width="190" height="80" as="alternateBounds"/>
                    </mxGeometry>
                </mxCell>
                <mxCell id="101" value="" style="shape=partialRectangle;html=1;whiteSpace=wrap;collapsible=0;dropTarget=0;pointerEvents=0;fillColor=none;top=0;left=0;bottom=0;right=0;points=[[0,0.5],[1,0.5]];portConstraint=eastwest;fontSize=36;" vertex="1" parent="92">
                    <mxGeometry y="190" width="570" height="80" as="geometry"/>
                </mxCell>
                <mxCell id="102" value="deleted" style="shape=partialRectangle;html=1;whiteSpace=wrap;connectable=0;fillColor=none;top=0;left=0;bottom=0;right=0;overflow=hidden;pointerEvents=1;fontSize=36;" vertex="1" parent="101">
                    <mxGeometry width="190" height="80" as="geometry">
                        <mxRectangle width="190" height="80" as="alternateBounds"/>
                    </mxGeometry>
                </mxCell>
                <mxCell id="103" value="datetime" style="shape=partialRectangle;html=1;whiteSpace=wrap;connectable=0;fillColor=none;top=0;left=0;bottom=0;right=0;overflow=hidden;pointerEvents=1;fontSize=36;" vertex="1" parent="101">
                    <mxGeometry x="190" width="190" height="80" as="geometry">
                        <mxRectangle width="190" height="80" as="alternateBounds"/>
                    </mxGeometry>
                </mxCell>
                <mxCell id="104" value="" style="shape=partialRectangle;html=1;whiteSpace=wrap;connectable=0;fillColor=none;top=0;left=0;bottom=0;right=0;overflow=hidden;pointerEvents=1;fontSize=36;" vertex="1" parent="101">
                    <mxGeometry x="380" width="190" height="80" as="geometry">
                        <mxRectangle width="190" height="80" as="alternateBounds"/>
                    </mxGeometry>
                </mxCell>
                <mxCell id="105" value="task_table" style="shape=table;startSize=30;container=1;collapsible=0;childLayout=tableLayout;fontStyle=1;align=center;pointerEvents=1;fontSize=36;strokeColor=#FF9999;" vertex="1" parent="1">
                    <mxGeometry x="-790" y="420" width="550" height="280" as="geometry"/>
                </mxCell>
                <mxCell id="106" value="" style="shape=partialRectangle;html=1;whiteSpace=wrap;collapsible=0;dropTarget=0;pointerEvents=0;fillColor=none;top=0;left=0;bottom=0;right=0;points=[[0,0.5],[1,0.5]];portConstraint=eastwest;fontSize=36;" vertex="1" parent="105">
                    <mxGeometry y="30" width="550" height="86" as="geometry"/>
                </mxCell>
                <mxCell id="107" value="task_id" style="shape=partialRectangle;html=1;whiteSpace=wrap;connectable=0;fillColor=none;top=0;left=0;bottom=0;right=0;overflow=hidden;pointerEvents=1;fontSize=36;" vertex="1" parent="106">
                    <mxGeometry width="183" height="86" as="geometry">
                        <mxRectangle width="183" height="86" as="alternateBounds"/>
                    </mxGeometry>
                </mxCell>
                <mxCell id="108" value="int" style="shape=partialRectangle;html=1;whiteSpace=wrap;connectable=0;fillColor=none;top=0;left=0;bottom=0;right=0;overflow=hidden;pointerEvents=1;fontSize=36;" vertex="1" parent="106">
                    <mxGeometry x="183" width="184" height="86" as="geometry">
                        <mxRectangle width="184" height="86" as="alternateBounds"/>
                    </mxGeometry>
                </mxCell>
                <mxCell id="109" value="" style="shape=partialRectangle;html=1;whiteSpace=wrap;connectable=0;fillColor=none;top=0;left=0;bottom=0;right=0;overflow=hidden;pointerEvents=1;fontSize=36;" vertex="1" parent="106">
                    <mxGeometry x="367" width="183" height="86" as="geometry">
                        <mxRectangle width="183" height="86" as="alternateBounds"/>
                    </mxGeometry>
                </mxCell>
                <mxCell id="110" value="" style="shape=partialRectangle;html=1;whiteSpace=wrap;collapsible=0;dropTarget=0;pointerEvents=0;fillColor=none;top=0;left=0;bottom=0;right=0;points=[[0,0.5],[1,0.5]];portConstraint=eastwest;fontSize=36;" vertex="1" parent="105">
                    <mxGeometry y="116" width="550" height="81" as="geometry"/>
                </mxCell>
                <mxCell id="111" value="task" style="shape=partialRectangle;html=1;whiteSpace=wrap;connectable=0;fillColor=none;top=0;left=0;bottom=0;right=0;overflow=hidden;pointerEvents=1;fontSize=36;" vertex="1" parent="110">
                    <mxGeometry width="183" height="81" as="geometry">
                        <mxRectangle width="183" height="81" as="alternateBounds"/>
                    </mxGeometry>
                </mxCell>
                <mxCell id="112" value="varchar(45)" style="shape=partialRectangle;html=1;whiteSpace=wrap;connectable=0;fillColor=none;top=0;left=0;bottom=0;right=0;overflow=hidden;pointerEvents=1;fontSize=36;" vertex="1" parent="110">
                    <mxGeometry x="183" width="184" height="81" as="geometry">
                        <mxRectangle width="184" height="81" as="alternateBounds"/>
                    </mxGeometry>
                </mxCell>
                <mxCell id="113" value="" style="shape=partialRectangle;html=1;whiteSpace=wrap;connectable=0;fillColor=none;top=0;left=0;bottom=0;right=0;overflow=hidden;pointerEvents=1;fontSize=36;" vertex="1" parent="110">
                    <mxGeometry x="367" width="183" height="81" as="geometry">
                        <mxRectangle width="183" height="81" as="alternateBounds"/>
                    </mxGeometry>
                </mxCell>
                <mxCell id="114" value="" style="shape=partialRectangle;html=1;whiteSpace=wrap;collapsible=0;dropTarget=0;pointerEvents=0;fillColor=none;top=0;left=0;bottom=0;right=0;points=[[0,0.5],[1,0.5]];portConstraint=eastwest;fontSize=36;" vertex="1" parent="105">
                    <mxGeometry y="197" width="550" height="83" as="geometry"/>
                </mxCell>
                <mxCell id="115" value="date" style="shape=partialRectangle;html=1;whiteSpace=wrap;connectable=0;fillColor=none;top=0;left=0;bottom=0;right=0;overflow=hidden;pointerEvents=1;fontSize=36;" vertex="1" parent="114">
                    <mxGeometry width="183" height="83" as="geometry">
                        <mxRectangle width="183" height="83" as="alternateBounds"/>
                    </mxGeometry>
                </mxCell>
                <mxCell id="116" value="datetime" style="shape=partialRectangle;html=1;whiteSpace=wrap;connectable=0;fillColor=none;top=0;left=0;bottom=0;right=0;overflow=hidden;pointerEvents=1;fontSize=36;" vertex="1" parent="114">
                    <mxGeometry x="183" width="184" height="83" as="geometry">
                        <mxRectangle width="184" height="83" as="alternateBounds"/>
                    </mxGeometry>
                </mxCell>
                <mxCell id="117" value="" style="shape=partialRectangle;html=1;whiteSpace=wrap;connectable=0;fillColor=none;top=0;left=0;bottom=0;right=0;overflow=hidden;pointerEvents=1;fontSize=36;" vertex="1" parent="114">
                    <mxGeometry x="367" width="183" height="83" as="geometry">
                        <mxRectangle width="183" height="83" as="alternateBounds"/>
                    </mxGeometry>
                </mxCell>
                <mxCell id="124" value="" style="sketch=0;pointerEvents=1;shadow=0;dashed=0;html=1;strokeColor=none;fillColor=#505050;labelPosition=center;verticalLabelPosition=bottom;verticalAlign=top;outlineConnect=0;align=center;shape=mxgraph.office.users.csv_file;fontSize=36;" vertex="1" parent="1">
                    <mxGeometry x="230" y="905" width="240" height="143" as="geometry"/>
                </mxCell>
                <mxCell id="125" value="" style="dashed=0;outlineConnect=0;html=1;align=center;labelPosition=center;verticalLabelPosition=bottom;verticalAlign=top;shape=mxgraph.webicons.json;gradientColor=#DFDEDE;fontSize=36;strokeColor=#99CCFF;" vertex="1" parent="1">
                    <mxGeometry x="10" y="900" width="176" height="171.4" as="geometry"/>
                </mxCell>
                <mxCell id="128" value="&lt;font style=&quot;font-size: 48px&quot;&gt;データベースとテーブルについて&lt;/font&gt;" style="text;html=1;resizable=0;autosize=1;align=center;verticalAlign=middle;points=[];fillColor=none;strokeColor=none;rounded=0;fontSize=36;" vertex="1" parent="1">
                    <mxGeometry x="-1300" y="-160" width="720" height="50" as="geometry"/>
                </mxCell>
                <mxCell id="131" value="&lt;span style=&quot;font-size: 48px&quot;&gt;画面イメージについて&lt;/span&gt;" style="text;html=1;resizable=0;autosize=1;align=center;verticalAlign=middle;points=[];fillColor=none;strokeColor=none;rounded=0;fontSize=36;" vertex="1" parent="1">
                    <mxGeometry x="95" y="-160" width="490" height="50" as="geometry"/>
                </mxCell>
                <mxCell id="133" value="&lt;span style=&quot;font-size: 48px&quot;&gt;ファイル出力部分について&lt;/span&gt;" style="text;html=1;resizable=0;autosize=1;align=center;verticalAlign=middle;points=[];fillColor=none;strokeColor=none;rounded=0;fontSize=36;" vertex="1" parent="1">
                    <mxGeometry x="-40" y="810" width="590" height="50" as="geometry"/>
                </mxCell>
            </root>
        </mxGraphModel>
    </diagram>
</mxfile>